<?xml version="1.0" standalone="no"?>
<!DOCTYPE svg PUBLIC "-//W3C//DTD SVG 20010904//EN"
 "http://www.w3.org/TR/2001/REC-SVG-20010904/DTD/svg10.dtd">
<svg version="1.0" xmlns="http://www.w3.org/2000/svg"
 width="148.000000pt" height="147.000000pt" viewBox="0 0 148.000000 147.000000"
 preserveAspectRatio="xMidYMid meet">

<g transform="translate(0.000000,147.000000) scale(0.100000,-0.100000)"
fill="#000000" stroke="none">
<path d="M2 738 l3 -733 735 0 735 0 3 733 2 732 -740 0 -740 0 2 -732z m1436
700 c9 -9 12 -129 12 -477 l0 -466 -137 137 c-76 75 -148 141 -161 148 -46 23
-79 -2 -297 -220 l-209 -209 -104 101 c-140 136 -125 140 -344 -79 l-168 -168
0 611 c0 461 3 613 12 622 17 17 1379 17 1396 0z m-142 -850 l154 -153 0 -191
c0 -134 -3 -193 -12 -202 -17 -17 -1379 -17 -1396 0 -7 7 -12 33 -12 58 l0 45
178 178 c124 124 184 177 200 177 14 0 56 -34 124 -100 57 -55 108 -100 114
-100 6 0 110 99 232 220 154 154 227 220 242 220 16 0 71 -48 176 -152z"/>
<path d="M397 1354 c-4 -4 -7 -27 -7 -51 0 -28 -4 -43 -13 -43 -7 0 -29 -8
-49 -19 l-37 -18 -27 28 c-31 32 -52 37 -61 13 -3 -9 7 -28 27 -49 19 -20 28
-35 21 -39 -6 -4 -16 -25 -22 -46 -12 -38 -14 -40 -54 -40 -46 0 -56 -5 -48
-26 3 -9 20 -14 47 -14 41 0 43 -1 63 -49 l21 -50 -29 -27 c-16 -15 -29 -33
-29 -40 0 -25 26 -21 57 9 32 30 33 30 65 14 18 -8 41 -18 51 -21 13 -4 17
-16 17 -51 0 -39 3 -46 18 -43 12 2 18 15 20 45 3 40 6 44 49 63 l46 20 27
-25 c52 -50 85 -17 35 35 -24 25 -25 28 -10 56 8 16 15 37 15 46 0 13 11 18
48 20 39 2 47 6 47 23 0 17 -6 19 -43 17 -34 -3 -43 0 -48 15 -3 10 -12 33
-20 52 -15 33 -14 35 14 65 29 30 33 56 8 56 -7 0 -25 -13 -41 -30 -26 -27
-31 -29 -49 -17 -12 8 -33 17 -48 20 -24 6 -27 12 -30 54 -3 44 -15 62 -31 47z
m-17 -159 c0 -10 -10 -15 -32 -15 l-33 1 25 14 c32 18 40 18 40 0z m78 -2 c2
-9 -8 -13 -32 -13 -26 0 -36 4 -36 16 0 19 61 16 68 -3z m27 -3 c3 -5 1 -10
-4 -10 -6 0 -11 5 -11 10 0 6 2 10 4 10 3 0 8 -4 11 -10z m-105 -55 c0 -33 -2
-35 -35 -35 -33 0 -35 2 -35 35 0 33 2 35 35 35 33 0 35 -2 35 -35z m80 0 c0
-33 -2 -35 -35 -35 -33 0 -35 2 -35 35 0 33 2 35 35 35 33 0 35 -2 35 -35z
m64 13 c25 -35 20 -48 -19 -48 -33 0 -35 2 -35 35 0 28 4 35 19 35 11 0 27
-10 35 -22z m-224 -18 c0 -20 -5 -30 -15 -30 -18 0 -18 2 -3 35 15 32 18 32
18 -5z m0 -76 c0 -45 -24 -42 -28 4 -2 24 1 32 12 32 12 0 16 -10 16 -36z m80
1 c0 -33 -2 -35 -35 -35 -33 0 -35 2 -35 35 0 33 2 35 35 35 33 0 35 -2 35
-35z m80 0 c0 -33 -2 -35 -35 -35 -33 0 -35 2 -35 35 0 33 2 35 35 35 33 0 35
-2 35 -35z m80 0 c0 -33 -2 -35 -35 -35 -33 0 -35 2 -35 35 0 33 2 35 35 35
33 0 35 -2 35 -35z m-160 -80 c0 -19 -5 -35 -10 -35 -22 0 -60 33 -60 51 0 15
7 19 35 19 33 0 35 -2 35 -35z m80 0 c0 -33 -2 -35 -35 -35 -33 0 -35 2 -35
35 0 33 2 35 35 35 33 0 35 -2 35 -35z m59 16 c-7 -10 -20 -23 -30 -30 -17
-10 -19 -8 -19 19 0 27 3 30 30 30 27 0 29 -2 19 -19z"/>
</g>
</svg>
