<svg width="19" height="19" viewBox="0 0 19 19" fill="none" xmlns="http://www.w3.org/2000/svg">
<g clip-path="url(#clip0_182_4)">
<path d="M17.8125 1.77915L13.0583 1.77917V0.595825C13.0583 0.267778 12.7926 0.0020752 12.4646 0.0020752C12.1365 0.0020752 11.8708 0.267778 11.8708 0.595825V1.77887H7.12084V0.595825C7.12084 0.267778 6.85514 0.0020752 6.52709 0.0020752C6.19905 0.0020752 5.93334 0.267778 5.93334 0.595825V1.77887H1.1875C0.531703 1.77887 0 2.31058 0 2.96637V17.8101C0 18.4659 0.531703 18.9976 1.1875 18.9976H17.8125C18.4683 18.9976 19 18.4659 19 17.8101V2.96637C19 2.31085 18.4683 1.77915 17.8125 1.77915ZM17.8125 17.8101H1.1875V2.96637H5.93334V3.56458C5.93334 3.8926 6.19905 4.15833 6.52709 4.15833C6.85514 4.15833 7.12084 3.8926 7.12084 3.56458V2.96667H11.8708V3.56487C11.8708 3.89292 12.1365 4.15862 12.4646 4.15862C12.7926 4.15862 13.0583 3.89292 13.0583 3.56487V2.96667H17.8125V17.8101ZM13.6562 9.4979H14.8438C15.1715 9.4979 15.4375 9.2319 15.4375 8.90415V7.71665C15.4375 7.3889 15.1715 7.1229 14.8438 7.1229H13.6562C13.3285 7.1229 13.0625 7.3889 13.0625 7.71665V8.90415C13.0625 9.2319 13.3285 9.4979 13.6562 9.4979ZM13.6562 14.2476H14.8438C15.1715 14.2476 15.4375 13.9819 15.4375 13.6539V12.4664C15.4375 12.1386 15.1715 11.8726 14.8438 11.8726H13.6562C13.3285 11.8726 13.0625 12.1386 13.0625 12.4664V13.6539C13.0625 13.9822 13.3285 14.2476 13.6562 14.2476ZM10.0938 11.8726H8.90625C8.5785 11.8726 8.3125 12.1386 8.3125 12.4664V13.6539C8.3125 13.9819 8.5785 14.2476 8.90625 14.2476H10.0938C10.4215 14.2476 10.6875 13.9819 10.6875 13.6539V12.4664C10.6875 12.1389 10.4215 11.8726 10.0938 11.8726ZM10.0938 7.1229H8.90625C8.5785 7.1229 8.3125 7.3889 8.3125 7.71665V8.90415C8.3125 9.2319 8.5785 9.4979 8.90625 9.4979H10.0938C10.4215 9.4979 10.6875 9.2319 10.6875 8.90415V7.71665C10.6875 7.3886 10.4215 7.1229 10.0938 7.1229ZM5.34375 7.1229H4.15625C3.8285 7.1229 3.5625 7.3889 3.5625 7.71665V8.90415C3.5625 9.2319 3.8285 9.4979 4.15625 9.4979H5.34375C5.6715 9.4979 5.9375 9.2319 5.9375 8.90415V7.71665C5.9375 7.3886 5.6715 7.1229 5.34375 7.1229ZM5.34375 11.8726H4.15625C3.8285 11.8726 3.5625 12.1386 3.5625 12.4664V13.6539C3.5625 13.9819 3.8285 14.2476 4.15625 14.2476H5.34375C5.6715 14.2476 5.9375 13.9819 5.9375 13.6539V12.4664C5.9375 12.1389 5.6715 11.8726 5.34375 11.8726Z" fill="#878787"/>
</g>
<defs>
<clipPath id="clip0_182_4">
<rect width="19" height="19" fill="white"/>
</clipPath>
</defs>
</svg>
