<svg width="25" height="25" viewBox="0 0 25 25" fill="none" xmlns="http://www.w3.org/2000/svg">
<path d="M21.1431 14.2567L21.1441 14.2557H21.1421L21.1431 14.2567Z" fill="white"/>
<path d="M22.0951 10.359C22.7924 9.88923 23.2729 8.96351 23.2729 8.1302C23.2729 6.95368 22.3198 6 21.1432 6C20.302 6 19.5771 6.48801 19.2311 7.19564C19.3691 7.3673 19.4552 7.58295 19.4552 7.81993V9.57487C19.6517 9.88757 19.9007 10.1641 20.1914 10.359C19.9345 10.424 19.6894 10.5168 19.4552 10.6245V12.1305C19.4552 12.6807 19.0083 13.1284 18.4571 13.1284H17.7686L18.1664 13.5261V13.9367C18.9075 14.1494 20.0247 14.2558 21.1406 14.2558L20.0617 13.1768L20.971 10.978H20.9616L20.6083 10.5734C20.7799 10.6348 20.9576 10.6714 21.142 10.6714C21.3271 10.6714 21.5048 10.6347 21.675 10.5734L21.3224 10.978H21.3129L22.2229 13.1768L21.1432 14.2558C23.0708 14.2572 24.9999 13.9408 24.9999 13.3054C25.0006 12.2318 23.7642 10.783 22.0951 10.359Z" fill="white"/>
<path d="M16.1398 11.4066C16.1398 11.872 16.0428 12.3504 15.8712 12.8066H18.4571C18.8299 12.8066 19.1336 12.5031 19.1336 12.1305V7.82059C19.1336 7.4481 18.8299 7.1438 18.4571 7.1438H11.9854C11.6132 7.1438 11.3086 7.4481 11.3086 7.82059V8.29976C11.7428 8.10124 12.2206 7.98816 12.7213 7.98816C14.6066 7.98816 16.1398 9.5217 16.1398 11.4066Z" fill="white"/>
<path d="M15.6053 13.3826C15.4996 13.5758 15.3778 13.7602 15.2466 13.9353H17.8439V13.6607L17.5687 13.3833H15.6053V13.3826Z" fill="white"/>
<path d="M12.7212 19.3316L12.7217 19.3306H12.7202L12.7212 19.3316Z" fill="white"/>
<path d="M13.9524 14.2892C14.8557 13.6822 15.4768 12.4841 15.4768 11.4059C15.4768 9.88405 14.2425 8.64972 12.7214 8.64972C11.6334 8.64972 10.6951 9.28098 10.2472 10.1964C10.4266 10.4191 10.5387 10.6982 10.5387 11.0047V13.2742C10.7923 13.6794 11.1151 14.0368 11.49 14.2892C11.1575 14.3741 10.8412 14.4925 10.5387 14.6339V16.5803C10.5387 17.2918 9.9598 17.8713 9.24641 17.8713H8.35596L8.87016 18.3854V18.9172C9.82959 19.1925 11.2743 19.3298 12.7187 19.3305L11.3218 17.9345L12.5003 15.0888H12.4878L12.0309 14.5652C12.2529 14.6447 12.4832 14.6918 12.722 14.6918C12.9607 14.6918 13.1905 14.6454 13.4112 14.5659L12.9553 15.0888H12.9435L14.1206 17.9345L12.7237 19.3305C15.2183 19.3311 17.7127 18.9219 17.7127 18.1008C17.7114 16.7122 16.1115 14.8372 13.9524 14.2892Z" fill="white"/>
<path d="M5.41879 18.2011V17.4553H9.24711C9.72904 17.4553 10.1231 17.0616 10.1231 16.5803V11.0048C10.1231 10.5226 9.72904 10.1288 9.24711 10.1288H0.875314C0.39372 10.1288 0 10.5218 0 11.0048V16.5803C0 17.0609 0.39372 17.4553 0.875314 17.4553H4.70397V18.2011H2.02563L1.66883 18.5591V18.9159H8.45459V18.5591L8.09757 18.2011H5.41879Z" fill="white"/>
</svg>
