<svg width="18" height="8" viewBox="0 0 18 8" fill="none" xmlns="http://www.w3.org/2000/svg">
<path d="M0.400017 4.09999L0.300018 4.2C0.200018 4.2 0.200012 4.29998 0.200012 4.39998C0.200012 4.49998 0.200018 4.49999 0.300018 4.59999C2.90002 6.49999 5.90002 7.49999 9.00002 7.49999C12.1 7.49999 15.1 6.49999 17.7 4.59999C17.8 4.59999 17.8 4.49998 17.8 4.39998C17.8 4.29998 17.8 4.3 17.7 4.2C12.5 0.4 5.60002 0.399994 0.400017 4.09999ZM0.800018 4.39998C5.70002 0.899981 12.2 0.899981 17.1 4.39998C12.3 7.89998 5.70002 7.89998 0.800018 4.39998Z" fill="#7CB041"/>
<path d="M6.60001 4.39999C6.60001 5.69999 7.70001 6.79999 9.00001 6.79999C10.3 6.79999 11.4 5.69999 11.4 4.39999C11.4 3.09999 10.3 2 9.00001 2C7.70001 2 6.60001 3.09999 6.60001 4.39999ZM10.9 4.39999C10.9 5.49999 10 6.29999 9.00001 6.29999C8.00001 6.29999 7.10001 5.39999 7.10001 4.39999C7.10001 3.29999 8.00001 2.5 9.00001 2.5C10 2.5 10.9 3.29999 10.9 4.39999Z" fill="#7CB041"/>
<path d="M17.8 2.20001C8.10002 -2.59999 0.400018 2.20001 0.300018 2.20001C0.200018 2.30001 0.200012 2.4 0.200012 2.5C0.300012 2.6 0.400015 2.60001 0.500015 2.60001C0.500015 2.60001 2.40002 1.39999 5.40002 0.79999C8.20002 0.29999 12.5 0.100008 17.5 2.60001H17.6C17.7 2.60001 17.8 2.6 17.8 2.5C17.9 2.4 17.9 2.30001 17.8 2.20001Z" fill="#7CB041"/>
</svg>
