<svg width="19" height="19" viewBox="0 0 19 19" fill="none" xmlns="http://www.w3.org/2000/svg">
<path d="M14.2152 13.4583L13.3454 7.29486C13.0897 5.48278 11.3339 3.95833 9.50008 3.95833C7.66866 3.95833 5.9104 5.48347 5.65475 7.29487L4.78488 13.4583H14.2152ZM4.08695 7.0736C4.45319 4.47863 6.88207 2.375 9.50008 2.375C12.1234 2.375 14.5473 4.48086 14.9132 7.0736L15.8167 13.4758C15.9387 14.3406 15.3347 15.0417 14.4605 15.0417H4.53958C3.66852 15.0417 3.06105 14.3426 3.18339 13.4758L4.08695 7.0736ZM11.8751 15.8333C11.8751 17.145 10.8118 18.2083 9.50008 18.2083C8.18841 18.2083 7.12508 17.145 7.12508 15.8333H8.31258C8.31258 16.4892 8.84425 17.0208 9.50008 17.0208C10.1559 17.0208 10.6876 16.4892 10.6876 15.8333H11.8751Z" fill="white"/>
<path d="M9.50008 3.95829C10.3745 3.95829 11.0834 3.24941 11.0834 2.37496C11.0834 1.50051 10.3745 0.791626 9.50008 0.791626C8.62563 0.791626 7.91675 1.50051 7.91675 2.37496C7.91675 3.24941 8.62563 3.95829 9.50008 3.95829Z" fill="white"/>
</svg>
