<svg width="19" height="19" viewBox="0 0 19 19" fill="none" xmlns="http://www.w3.org/2000/svg">
<path d="M3.96029 15.4732C4.01373 15.4732 9.16748 15.39 9.16748 8.41347C9.17015 7.63078 8.95849 6.86229 8.55545 6.19134C8.15241 5.52039 7.57338 4.97259 6.88113 4.60734C6.18888 4.24209 5.40985 4.07333 4.62851 4.11936C3.84717 4.16539 3.09334 4.42446 2.44877 4.86847C1.8042 5.31247 1.29349 5.92448 0.97202 6.63811C0.650551 7.35174 0.530592 8.13976 0.625152 8.91673C0.719713 9.69369 1.02518 10.4299 1.50844 11.0456C1.99169 11.6613 2.63429 12.133 3.36654 12.4094V14.8794C3.36654 15.0369 3.4291 15.1879 3.54044 15.2992C3.65179 15.4106 3.80282 15.4732 3.96029 15.4732ZM1.78123 8.41347C1.78123 7.59146 2.10777 6.80312 2.68901 6.22188C3.27026 5.64063 4.0586 5.31409 4.8806 5.31409C5.70261 5.31409 6.49095 5.64063 7.07219 6.22188C7.65344 6.80312 7.97998 7.59146 7.97998 8.41347C7.97998 12.8666 5.67623 13.9413 4.55404 14.2025V11.976C4.55831 11.8411 4.51653 11.7089 4.43559 11.6009C4.35464 11.493 4.23936 11.4159 4.10873 11.3822C3.44769 11.2133 2.86104 10.8306 2.44008 10.2937C2.01913 9.75675 1.78749 9.09571 1.78123 8.41347Z" fill="white"/>
<path d="M13.1931 15.4731C13.2466 15.4731 18.4063 15.39 18.4063 8.41342C18.4085 7.63109 18.1967 6.86306 17.7936 6.19253C17.3906 5.52201 16.8117 4.97456 16.1198 4.60949C15.4279 4.24443 14.6492 4.07567 13.8683 4.1215C13.0873 4.16733 12.3337 4.42601 11.6892 4.8695C11.0447 5.31299 10.5339 5.92439 10.2121 6.63746C9.89023 7.35053 9.76966 8.13807 9.86342 8.91476C9.95717 9.69145 10.2617 10.4277 10.744 11.0437C11.2262 11.6597 11.8679 12.132 12.5994 12.4094V14.8794C12.5994 15.0368 12.6619 15.1879 12.7733 15.2992C12.8846 15.4106 13.0357 15.4731 13.1931 15.4731ZM11.02 8.41342C11.02 7.59142 11.3465 6.80308 11.9278 6.22183C12.509 5.64059 13.2974 5.31405 14.1194 5.31405C14.9414 5.31405 15.7297 5.64059 16.311 6.22183C16.8922 6.80308 17.2188 7.59142 17.2188 8.41342C17.2188 12.8665 14.9091 13.9412 13.7869 14.2025V11.9759C13.7911 11.8411 13.7494 11.7088 13.6684 11.6009C13.5875 11.493 13.4722 11.4158 13.3416 11.3822C12.6816 11.2122 12.0963 10.829 11.6765 10.2921C11.2567 9.75531 11.0259 9.09488 11.02 8.41342Z" fill="white"/>
</svg>
