<svg width="30" height="29" viewBox="0 0 30 29" fill="none" xmlns="http://www.w3.org/2000/svg">
<path d="M28.8 29H0.600021C0.400021 29 0.200012 28.8 0.200012 28.6V0.700012C0.200012 0.500012 0.400021 0.299988 0.600021 0.299988H28.8C29 0.299988 29.2 0.500012 29.2 0.700012V28.6C29.2 28.8 29 29 28.8 29ZM0.900009 28.2H28.3V1.09998H0.900009V28.2Z" fill="#012939"/>
<path d="M20 7.70001H9.30003C9.10003 7.70001 8.90002 7.49999 8.90002 7.29999C8.90002 7.09999 9.10003 6.90002 9.30003 6.90002H20C20.2 6.90002 20.4 7.09999 20.4 7.29999C20.4 7.49999 20.2 7.70001 20 7.70001Z" fill="#012939"/>
<path d="M25.1 11.3H4.10002C3.90002 11.3 3.70001 11.1 3.70001 10.9C3.70001 10.7 3.90002 10.5 4.10002 10.5H25.1C25.3 10.5 25.5 10.7 25.5 10.9C25.5 11.1 25.4 11.3 25.1 11.3Z" fill="#012939"/>
<path d="M20 14.8H9.30003C9.10003 14.8 8.90002 14.6 8.90002 14.4C8.90002 14.2 9.10003 14 9.30003 14H20C20.2 14 20.4 14.2 20.4 14.4C20.4 14.7 20.2 14.8 20 14.8Z" fill="#012939"/>
<path d="M20 22H9.30003C9.10003 22 8.90002 21.8 8.90002 21.6C8.90002 21.4 9.10003 21.2 9.30003 21.2H20C20.2 21.2 20.4 21.4 20.4 21.6C20.4 21.8 20.2 22 20 22Z" fill="#012939"/>
<path d="M25.1 18.4H4.10002C3.90002 18.4 3.70001 18.2 3.70001 18C3.70001 17.8 3.90002 17.6 4.10002 17.6H25.1C25.3 17.6 25.5 17.8 25.5 18C25.5 18.2 25.4 18.4 25.1 18.4Z" fill="#012939"/>
</svg>
