<svg width="26" height="30" viewBox="0 0 26 30" fill="none" xmlns="http://www.w3.org/2000/svg">
<path d="M11.5 22.5C5.39999 22.5 0.399994 17.5 0.399994 11.4C0.399994 5.30002 5.39999 0.299988 11.5 0.299988C17.6 0.299988 22.6 5.30002 22.6 11.4C22.5 17.5 17.6 22.5 11.5 22.5ZM11.5 1.09998C5.79999 1.09998 1.19999 5.70002 1.19999 11.4C1.19999 17.1 5.79999 21.7 11.5 21.7C17.2 21.7 21.8 17.1 21.8 11.4C21.7 5.70002 17.1 1.09998 11.5 1.09998Z" fill="#012939"/>
<path d="M11.5 18C11.3 18 11.1 17.8 11.1 17.6V5.09998C11.1 4.89998 11.3 4.70001 11.5 4.70001C11.7 4.70001 11.9 4.89998 11.9 5.09998V17.6C11.9 17.9 11.7 18 11.5 18Z" fill="#012939"/>
<path d="M17.7 11.8H5.19998C4.99998 11.8 4.79999 11.6 4.79999 11.4C4.79999 11.2 4.99998 11 5.19998 11H17.7C17.9 11 18.1 11.2 18.1 11.4C18.1 11.6 17.9 11.8 17.7 11.8Z" fill="#012939"/>
<path d="M25.4 29.5C25.3 29.5 25.2 29.5 25.1 29.4L17.4 20.4C17.3 20.2 17.3 20 17.4 19.8C17.6 19.7 17.8 19.7 18 19.8L25.7 28.8C25.8 29 25.8 29.2 25.7 29.4C25.6 29.5 25.5 29.5 25.4 29.5Z" fill="#012939"/>
</svg>
