<svg width="22" height="21" viewBox="0 0 22 21" fill="none" xmlns="http://www.w3.org/2000/svg">
<path d="M12.1 20.8H10C9.6 20.8 9.20001 20.5 9.20001 20V19.1C9.20001 18.7 8.9 18.3 8.5 18.1C8.2 18 7.8 17.9 7.5 17.7C7.1 17.5 6.69999 17.6 6.39999 17.9L5.70001 18.6C5.40001 18.9 4.90001 18.9 4.60001 18.6L3.10001 17.1C2.80001 16.8 2.80001 16.3 3.10001 16L3.79999 15.3C4.09999 15 4.2 14.5 4 14.2C3.8 13.9 3.70001 13.6 3.60001 13.2C3.50001 12.8 3.10001 12.5 2.60001 12.5H1.70001C1.30001 12.5 0.899994 12.2 0.899994 11.7V9.5C0.899994 9.1 1.20001 8.7 1.70001 8.7H2.70001C3.10001 8.7 3.50001 8.4 3.70001 8C3.80001 7.7 3.90001 7.4 4.10001 7.1C4.30001 6.7 4.19999 6.3 3.89999 6L3.20001 5.3C3.10001 5.2 3 5 3 4.8C3 4.6 3.10001 4.4 3.20001 4.3L4.70001 2.8C5.00001 2.5 5.49999 2.5 5.79999 2.8L6.5 3.5C6.8 3.8 7.30001 3.9 7.60001 3.7C7.90001 3.5 8.20001 3.4 8.60001 3.3C9.00001 3.2 9.29999 2.8 9.29999 2.3V1.3C9.29999 0.899999 9.60001 0.5 10.1 0.5H12.3C12.7 0.5 13.1 0.799999 13.1 1.3V2.3C13.1 2.7 13.4 3.1 13.8 3.3C14.1 3.4 14.4 3.5 14.8 3.7C15.2 3.9 15.6 3.8 15.9 3.5L16.6 2.8C16.9 2.5 17.4 2.5 17.7 2.8L19.2 4.3C19.3 4.4 19.4 4.6 19.4 4.8C19.4 5 19.3 5.2 19.2 5.3L18.5 6C18.2 6.3 18.1 6.8 18.3 7.1C18.5 7.4 18.6 7.7 18.7 8C18.8 8.4 19.2 8.7 19.7 8.7H20.7C21.1 8.7 21.5 9 21.5 9.5V11.7C21.5 12.1 21.2 12.5 20.7 12.5H19.8C19.4 12.5 19 12.8 18.8 13.2C18.7 13.5 18.6 13.9 18.4 14.2C18.2 14.6 18.3 15 18.6 15.3L19.3 16C19.6 16.3 19.6 16.8 19.3 17.1L17.8 18.6C17.5 18.9 17 18.9 16.7 18.6L16 17.9C15.7 17.6 15.2 17.5 14.9 17.7C14.6 17.9 14.3 18 13.9 18.1C13.5 18.2 13.2 18.6 13.2 19.1V20C12.9 20.4 12.6 20.8 12.1 20.8ZM7.10001 17C7.30001 17 7.59999 17.1 7.79999 17.2C8.09999 17.3 8.40001 17.5 8.70001 17.6C9.40001 17.8 9.79999 18.4 9.79999 19.1V20C9.79999 20.1 9.9 20.2 10 20.2H12.2C12.3 20.2 12.4 20.1 12.4 20V19.1C12.4 18.4 12.8 17.8 13.5 17.6C13.8 17.5 14.1 17.4 14.4 17.2C15 16.9 15.7 17 16.2 17.5L16.9 18.2C17 18.3 17.1 18.3 17.2 18.2L18.7 16.7L18.8 16.6C18.8 16.5 18.8 16.5 18.7 16.5L18 15.8C17.5 15.3 17.4 14.6 17.7 14C17.8 13.7 18 13.4 18.1 13.1C18.3 12.5 18.9 12 19.6 12H20.5C20.6 12 20.7 11.9 20.7 11.8V9.6C20.7 9.5 20.6 9.4 20.5 9.4H19.5C18.8 9.4 18.2 9 18 8.3C17.9 8 17.8 7.7 17.6 7.4C17.3 6.8 17.4 6.1 17.9 5.6L18.6 4.9L18.7 4.8C18.7 4.7 18.7 4.7 18.6 4.7L17.1 3.2C17 3.1 16.9 3.1 16.8 3.2L16.1 3.9C15.6 4.4 14.9 4.5 14.3 4.2C14 4.1 13.7 3.9 13.4 3.8C12.8 3.6 12.3 3 12.3 2.3V1.3C12.3 1.2 12.2 1.1 12.1 1.1H10C9.9 1.1 9.79999 1.2 9.79999 1.3V2.3C9.79999 3 9.40001 3.6 8.70001 3.8C8.40001 3.9 8.09999 4 7.79999 4.2C7.19999 4.5 6.5 4.4 6 3.9L5.29999 3.2C5.19999 3.1 5.1 3.1 5 3.2L3.5 4.7L3.39999 4.8C3.39999 4.9 3.4 4.9 3.5 4.9L4.20001 5.6C4.70001 6.1 4.8 6.8 4.5 7.4C4.4 7.7 4.20001 8 4.10001 8.3C3.90001 8.9 3.30001 9.4 2.60001 9.4H1.60001C1.50001 9.4 1.39999 9.5 1.39999 9.6V11.8C1.39999 11.9 1.50001 12 1.60001 12H2.5C3.2 12 3.8 12.4 4 13.1C4.1 13.4 4.19999 13.7 4.39999 14C4.69999 14.6 4.60001 15.3 4.10001 15.8L3.39999 16.5L3.29999 16.6C3.29999 16.7 3.29999 16.7 3.39999 16.7L4.89999 18.2C4.99999 18.3 5.10001 18.3 5.20001 18.2L5.89999 17.5C6.29999 17.2 6.70001 17 7.10001 17Z" fill="white"/>
<path d="M11.1 16.3C8.00001 16.3 5.39999 13.8 5.39999 10.6C5.39999 7.50003 7.90001 4.90002 11.1 4.90002C14.2 4.90002 16.8 7.40003 16.8 10.6C16.7 13.7 14.2 16.3 11.1 16.3ZM11.1 5.50002C8.30001 5.50002 6 7.80003 6 10.6C6 13.4 8.30001 15.7 11.1 15.7C13.9 15.7 16.2 13.4 16.2 10.6C16.2 7.80003 13.9 5.50002 11.1 5.50002Z" fill="white"/>
</svg>
