<svg width="18" height="18" viewBox="0 0 18 18" fill="none" xmlns="http://www.w3.org/2000/svg">
<path d="M9 0C8.61785 0 8.30769 0.310154 8.30769 0.692308V0.811298C8.30769 1.14222 8.07467 1.43747 7.7479 1.49008C7.58936 1.5157 7.43242 1.54537 7.27734 1.58068C6.95611 1.65406 6.63126 1.47219 6.50526 1.16827L6.45929 1.0601C6.31321 0.707019 5.90846 0.538778 5.55469 0.685547C5.20161 0.831624 5.03337 1.23638 5.18014 1.59014L5.22611 1.70102C5.3535 2.00564 5.25163 2.36625 4.97055 2.54072C4.83486 2.62518 4.70248 2.71366 4.57302 2.80574C4.3044 2.99751 3.93283 2.95386 3.69952 2.72055L3.61569 2.63672C3.34499 2.36603 2.90672 2.36603 2.63672 2.63672C2.36672 2.90741 2.36672 3.34569 2.63672 3.61569L2.72055 3.69952C2.95386 3.93283 2.99751 4.30371 2.80574 4.57302C2.71366 4.70248 2.62518 4.83486 2.54072 4.97055C2.36625 5.25163 2.00498 5.35416 1.69967 5.22746L1.59014 5.18149C1.23707 5.03541 0.830964 5.20296 0.684195 5.55604C0.538118 5.90912 0.705667 6.31387 1.05874 6.46064L1.16692 6.50526C1.47084 6.63126 1.65406 6.95611 1.58068 7.27734C1.54537 7.43242 1.51435 7.58936 1.48873 7.7479C1.43681 8.07397 1.14222 8.30769 0.811298 8.30769H0.692308C0.310154 8.30769 0 8.61785 0 9C0 9.38215 0.310154 9.69231 0.692308 9.69231H0.811298C1.14222 9.69231 1.43747 9.92533 1.49008 10.2521C1.5157 10.4106 1.54537 10.5676 1.58068 10.7227C1.65406 11.0439 1.47219 11.3687 1.16827 11.4947L1.0601 11.5407C0.707019 11.6868 0.538778 12.0915 0.685547 12.4453C0.831624 12.7984 1.23638 12.9666 1.59014 12.8199L1.70102 12.7739C2.00633 12.6472 2.36691 12.7491 2.54207 13.0294C2.62653 13.1651 2.71432 13.2982 2.80709 13.4283C2.99886 13.697 2.95521 14.0685 2.72191 14.3018L2.63672 14.3857C2.36603 14.6564 2.36603 15.0946 2.63672 15.3646C2.90741 15.6346 3.34569 15.6353 3.61569 15.3646L3.70087 15.2808C3.93418 15.0475 4.3044 15.0025 4.57302 15.1943C4.70317 15.287 4.83621 15.3762 4.97191 15.4606C5.25229 15.6351 5.35551 15.9964 5.22882 16.3017L5.18284 16.4112C5.03677 16.7643 5.20431 17.1704 5.55739 17.3172C5.91047 17.4632 6.31522 17.2957 6.46199 16.9426L6.50661 16.8344C6.63261 16.5305 6.95747 16.3473 7.2787 16.4207C7.43377 16.456 7.59071 16.487 7.74925 16.5126C8.07394 16.5632 8.30769 16.8578 8.30769 17.1887V17.3077C8.30769 17.6898 8.61785 18 9 18C9.38215 18 9.69231 17.6898 9.69231 17.3077V17.1887C9.69231 16.8578 9.92533 16.5625 10.2521 16.5099C10.4106 16.4843 10.5676 16.4546 10.7227 16.4193C11.0439 16.3459 11.3687 16.5278 11.4947 16.8317L11.5407 16.9399C11.6868 17.293 12.0915 17.4612 12.4453 17.3145C12.7984 17.1684 12.9666 16.7636 12.8199 16.4099L12.7739 16.299C12.6472 15.9937 12.7491 15.6331 13.0294 15.4579C13.1651 15.3735 13.2982 15.2857 13.4283 15.1929C13.697 15.0011 14.0685 15.0448 14.3018 15.2781L14.3857 15.3633C14.6564 15.634 15.0946 15.634 15.3646 15.3633C15.6346 15.0926 15.6353 14.6543 15.3646 14.3843L15.2808 14.2991C15.0475 14.0658 15.0025 13.6956 15.1943 13.427C15.287 13.2968 15.3762 13.1638 15.4606 13.0281C15.6351 12.7477 15.9964 12.6445 16.3017 12.7712L16.4112 12.8172C16.7643 12.9632 17.1704 12.7957 17.3172 12.4426C17.4632 12.0895 17.2957 11.6848 16.9426 11.538L16.8344 11.4934C16.5305 11.3674 16.3473 11.0425 16.4207 10.7213C16.456 10.5662 16.487 10.4093 16.5126 10.2508C16.5632 9.92606 16.8578 9.69231 17.1887 9.69231H17.3077C17.6898 9.69231 18 9.38215 18 9C18 8.61785 17.6898 8.30769 17.3077 8.30769H17.1887C16.8578 8.30769 16.5625 8.07467 16.5099 7.7479C16.4843 7.58936 16.4546 7.43242 16.4193 7.27734C16.3459 6.95611 16.5278 6.63126 16.8317 6.50526L16.9399 6.45929C17.293 6.31321 17.4612 5.90846 17.3145 5.55469C17.1684 5.20161 16.7636 5.03337 16.4099 5.18014L16.299 5.22611C15.9937 5.3528 15.6331 5.25094 15.4579 4.97055C15.3735 4.83486 15.2857 4.70182 15.1929 4.57166C15.0011 4.30305 15.0448 3.93147 15.2781 3.69817L15.3633 3.61433C15.634 3.34364 15.634 2.90537 15.3633 2.63537C15.0926 2.36467 14.6543 2.36467 14.3843 2.63537L14.3005 2.72055C14.0672 2.95386 13.6956 2.99886 13.427 2.80709C13.2968 2.71432 13.1638 2.62518 13.0281 2.54072C12.7477 2.36625 12.6458 2.00498 12.7725 1.69967L12.8185 1.59014C12.9646 1.23707 12.797 0.830964 12.444 0.684195C12.0909 0.538118 11.6861 0.705667 11.5394 1.05874L11.4934 1.16692C11.3674 1.47084 11.0425 1.65406 10.7213 1.58068C10.5662 1.54537 10.4093 1.51435 10.2508 1.48873C9.92537 1.43681 9.69231 1.14222 9.69231 0.811298V0.692308C9.69231 0.310154 9.38215 0 9 0ZM9 3.46154C11.8237 3.46154 14.1498 5.57645 14.4911 8.30769H10.1967C10.0753 8.09756 9.90094 7.923 9.69092 7.8015C9.4809 7.68 9.24264 7.61581 9 7.61539C8.99955 7.61538 8.9991 7.61538 8.99865 7.61539L6.85141 3.89423C7.51223 3.61574 8.23792 3.46154 9 3.46154ZM5.6561 4.59195L7.80198 8.30769C7.68008 8.51807 7.61572 8.75685 7.61539 9C7.61619 9.24223 7.68053 9.48002 7.80198 9.6896L5.65475 13.4067C4.32445 12.3951 3.46154 10.8 3.46154 9C3.46154 7.19927 4.32494 5.60351 5.6561 4.59195ZM10.198 9.69231H14.4911C14.1498 12.4235 11.8237 14.5385 9 14.5385C8.23792 14.5385 7.51223 14.3843 6.85141 14.1058L8.99865 10.3846C8.9991 10.3846 8.99955 10.3846 9 10.3846C9.24287 10.3844 9.48141 10.3204 9.69169 10.1988C9.90197 10.0773 10.0766 9.90264 10.198 9.69231Z" fill="white"/>
</svg>
