<svg width="19" height="19" viewBox="0 0 19 19" fill="none" xmlns="http://www.w3.org/2000/svg">
<path d="M16.0313 9.49999C15.8738 9.49999 15.7228 9.56254 15.6114 9.67389C15.5001 9.78524 15.4375 9.93626 15.4375 10.0937V11.875C15.4375 12.0325 15.5001 12.1835 15.6114 12.2948C15.7228 12.4062 15.8738 12.4687 16.0313 12.4687C16.1887 12.4687 16.3398 12.4062 16.4511 12.2948C16.5625 12.1835 16.625 12.0325 16.625 11.875V10.0937C16.625 9.93626 16.5625 9.78524 16.4511 9.67389C16.3398 9.56254 16.1887 9.49999 16.0313 9.49999ZM16.3638 7.22592C16.3307 7.20333 16.2948 7.18535 16.2569 7.17249C16.2214 7.15461 16.1834 7.14258 16.1441 7.13686C16.0487 7.11776 15.9501 7.12239 15.8569 7.15035C15.7637 7.1783 15.6788 7.22872 15.6097 7.29717C15.5547 7.35265 15.5111 7.41845 15.4816 7.49079C15.452 7.56313 15.4371 7.6406 15.4375 7.71874C15.4375 7.87621 15.5001 8.02723 15.6114 8.13858C15.7228 8.24993 15.8738 8.31249 16.0313 8.31249C16.1887 8.31249 16.3398 8.24993 16.4511 8.13858C16.5625 8.02723 16.625 7.87621 16.625 7.71874C16.6228 7.56153 16.5613 7.41096 16.4528 7.29717L16.3638 7.22592Z" fill="white"/>
<path d="M14.8438 2.375H14.25C14.25 1.90258 14.0623 1.44952 13.7283 1.11547C13.3942 0.781417 12.9412 0.59375 12.4688 0.59375H6.53125C6.05883 0.59375 5.60576 0.781417 5.27172 1.11547C4.93767 1.44952 4.75 1.90258 4.75 2.375H4.15625C3.69195 2.37483 3.24593 2.55597 2.91322 2.87981C2.5805 3.20366 2.38738 3.64461 2.375 4.10875V16.6725C2.38738 17.1366 2.5805 17.5776 2.91322 17.9014C3.24593 18.2253 3.69195 18.4064 4.15625 18.4062H14.8438C15.3081 18.4064 15.7541 18.2253 16.0868 17.9014C16.4195 17.5776 16.6126 17.1366 16.625 16.6725V13.6562C16.625 13.4988 16.5624 13.3478 16.4511 13.2364C16.3397 13.1251 16.1887 13.0625 16.0312 13.0625C15.8738 13.0625 15.7228 13.1251 15.6114 13.2364C15.5001 13.3478 15.4375 13.4988 15.4375 13.6562V16.6725C15.4255 16.8216 15.3577 16.9607 15.2477 17.062C15.1376 17.1632 14.9933 17.2192 14.8438 17.2188H4.15625C4.00667 17.2192 3.86242 17.1632 3.75234 17.062C3.64227 16.9607 3.57447 16.8216 3.5625 16.6725V4.10875C3.57447 3.95965 3.64227 3.82056 3.75234 3.71929C3.86242 3.61801 4.00667 3.56202 4.15625 3.5625H4.75C4.75 4.03492 4.93767 4.48799 5.27172 4.82203C5.60576 5.15608 6.05883 5.34375 6.53125 5.34375H12.4688C12.9412 5.34375 13.3942 5.15608 13.7283 4.82203C14.0623 4.48799 14.25 4.03492 14.25 3.5625H14.8438C14.9933 3.56202 15.1376 3.61801 15.2477 3.71929C15.3577 3.82056 15.4255 3.95965 15.4375 4.10875V5.34375C15.4375 5.50122 15.5001 5.65224 15.6114 5.76359C15.7228 5.87494 15.8738 5.9375 16.0312 5.9375C16.1887 5.9375 16.3397 5.87494 16.4511 5.76359C16.5624 5.65224 16.625 5.50122 16.625 5.34375V4.10875C16.6126 3.64461 16.4195 3.20366 16.0868 2.87981C15.7541 2.55597 15.3081 2.37483 14.8438 2.375ZM13.0625 3.5625C13.0625 3.71997 12.9999 3.87099 12.8886 3.98234C12.7772 4.09369 12.6262 4.15625 12.4688 4.15625H6.53125C6.37378 4.15625 6.22276 4.09369 6.11141 3.98234C6.00006 3.87099 5.9375 3.71997 5.9375 3.5625V2.375C5.9375 2.21753 6.00006 2.06651 6.11141 1.95516C6.22276 1.84381 6.37378 1.78125 6.53125 1.78125H12.4688C12.6262 1.78125 12.7772 1.84381 12.8886 1.95516C12.9999 2.06651 13.0625 2.21753 13.0625 2.375V3.5625Z" fill="white"/>
<path d="M13.2167 7.91469L8.3123 13.3891L5.76512 10.8597C5.65153 10.7624 5.50542 10.7116 5.35599 10.7174C5.20656 10.7231 5.06481 10.7851 4.95906 10.8908C4.85332 10.9966 4.79137 11.1383 4.7856 11.2878C4.77983 11.4372 4.83066 11.5833 4.92793 11.6969L7.89668 14.6656C8.0063 14.7775 8.15569 14.8415 8.3123 14.8438C8.39315 14.8419 8.47277 14.8236 8.54628 14.7899C8.61979 14.7562 8.68564 14.7079 8.7398 14.6478L14.0836 8.71032C14.1891 8.593 14.2436 8.43858 14.2353 8.28102C14.2269 8.12346 14.1563 7.97567 14.039 7.87016C13.9217 7.76466 13.7673 7.71007 13.6097 7.71843C13.4522 7.72678 13.3044 7.79738 13.1989 7.91469H13.2167Z" fill="white"/>
</svg>
