<svg width="23" height="30" viewBox="0 0 23 30" fill="none" xmlns="http://www.w3.org/2000/svg">
<path d="M11.3 20.7C11.2 20.7 11.2 20.7 11.1 20.7L6.49998 18.8C6.39998 18.7 6.29999 18.6 6.29999 18.4C6.29999 18.2 6.39998 18.1 6.49998 18L11.1 16.1C11.2 16.1 11.3 16.1 11.4 16.1L16 18C16.1 18.1 16.2 18.2 16.2 18.4C16.2 18.6 16.1 18.7 16 18.8L11.4 20.7H11.3ZM7.69998 18.4L11.3 19.9L14.9 18.4L11.3 16.9L7.69998 18.4Z" fill="#012939"/>
<path d="M11.2 18.5C11 18.5 10.8 18.3 10.8 18.1V14.7C10.8 14.5 11 14.3 11.2 14.3C11.4 14.3 11.6 14.5 11.6 14.7V18.1C11.5 18.4 11.4 18.5 11.2 18.5Z" fill="#012939"/>
<path d="M11.5 7.09998C11.4 7.09998 11.3 7.09998 11.2 7.09998C5.3 7.29998 0.5 12.1 0.5 18.1C0.5 18.2 0.5 18.4 0.5 18.5C0.5 18.5 0.5 18.5 0.5 18.6C0.8 24.4 5.6 29.1 11.5 29.1C17.6 29.1 22.5 24.2 22.5 18.1C22.5 12 17.5 7.09998 11.5 7.09998ZM11.5 28.3V25.8C11.5 25.6 11.3 25.4 11.1 25.4C10.9 25.4 10.7 25.6 10.7 25.8V28.3C5.7 28 1.6 23.9 1.2 18.9H3.7C3.9 18.9 4.10001 18.7 4.10001 18.5C4.10001 18.3 3.9 18.1 3.7 18.1H1.2C1.2 18.1 1.2 18.1 1.2 18C1.2 12.6 5.4 8.19999 10.7 7.79999V10.7C10.7 10.9 10.9 11.1 11.1 11.1C11.3 11.1 11.5 10.9 11.5 10.7V7.70001C17.1 7.70001 21.7 12.3 21.7 17.9C21.7 17.9 21.7 17.9 21.7 18H18.7C18.5 18 18.4 18.2 18.4 18.4C18.4 18.6 18.5 18.8 18.7 18.8H21.7C21.2 24.1 16.9 28.3 11.5 28.3Z" fill="#012939"/>
<path d="M13.3 4.69998C13.2 4.69998 13.1 4.69995 13 4.59995L10.1 1.69998V4.19998C10.1 4.39998 9.89998 4.59995 9.69998 4.59995C9.49998 4.59995 9.29999 4.39998 9.29999 4.19998V0.699983C9.29999 0.499983 9.39998 0.399959 9.49998 0.299959C9.59998 0.199959 9.79998 0.299995 9.89998 0.399995L12.8 3.29996V0.699983C12.8 0.499983 13 0.299959 13.2 0.299959C13.4 0.299959 13.6 0.499983 13.6 0.699983V4.19998C13.6 4.39998 13.5 4.49995 13.4 4.59995C13.4 4.69995 13.3 4.69998 13.3 4.69998Z" fill="#012939"/>
</svg>
