<svg width="38" height="38" viewBox="0 0 38 38" fill="none" xmlns="http://www.w3.org/2000/svg">
<path d="M19 37.3C8.8 37.3 0.5 29 0.5 18.8C0.5 8.59999 8.8 0.299988 19 0.299988C29.2 0.299988 37.5 8.59999 37.5 18.8C37.4 29 29.2 37.3 19 37.3ZM19 1.40002C9.4 1.40002 1.5 9.20002 1.5 18.9C1.5 28.6 9.3 36.4 19 36.4C28.6 36.4 36.5 28.6 36.5 18.9C36.5 9.20002 28.6 1.40002 19 1.40002Z" fill="#7CB041"/>
<path d="M19 30C18.7 30 18.5 29.8 18.5 29.5V8.40002C18.5 8.10002 18.7 7.90002 19 7.90002C19.3 7.90002 19.5 8.10002 19.5 8.40002V29.5C19.5 29.8 19.3 30 19 30Z" fill="#7CB041"/>
<path d="M29.5 19.4H8.39999C8.09999 19.4 7.89999 19.2 7.89999 18.9C7.89999 18.6 8.09999 18.4 8.39999 18.4H29.5C29.8 18.4 30 18.6 30 18.9C30 19.2 29.8 19.4 29.5 19.4Z" fill="#7CB041"/>
</svg>
