<svg width="19" height="19" viewBox="0 0 19 19" fill="none" xmlns="http://www.w3.org/2000/svg">
<g clip-path="url(#clip0_89_586)">
<path d="M1.0828 14.2541C1.0828 13.2932 1.0828 2.0428 1.0828 1.08109C2.0342 1.08109 12.1838 1.08109 13.1352 1.08109C13.1352 1.42113 13.1352 3.04917 13.1352 5.05078C13.3679 5.00782 13.6066 4.97864 13.8513 4.97864C13.9767 4.97864 14.0952 5.0044 14.2188 5.01559V0H0V15.3352H8.94228V14.2541C5.68789 14.2541 1.66499 14.2541 1.0828 14.2541Z" fill="#FFFAFA"/>
<path d="M2.62256 8.23386H9.96684C10.039 7.82942 10.1815 7.45331 10.3687 7.10126H2.62256V8.23386Z" fill="#FFFAFA"/>
<path d="M11.5941 3.56006H2.62256V4.69266H11.5941V3.56006Z" fill="#FFFAFA"/>
<path d="M2.62256 11.7759H10.2365C10.44 11.6523 10.6572 11.5518 10.8899 11.49C10.6692 11.2332 10.488 10.9447 10.3335 10.6433H2.62256V11.7759Z" fill="#FFFAFA"/>
<path d="M13.8524 11.8893C15.4873 11.8893 16.8045 10.5678 16.8045 8.93796C16.8045 7.30649 15.4873 5.98584 13.8524 5.98584C12.2243 5.98584 10.9062 7.30649 10.9062 8.93796C10.9062 10.5678 12.2243 11.8893 13.8524 11.8893Z" fill="#FFFAFA"/>
<path d="M16.2215 12.3684H11.4902C10.6452 12.3684 9.95312 13.1429 9.95312 14.0969V18.8472C9.95312 18.8995 9.97717 18.9459 9.98059 19H17.7267C17.7302 18.9468 17.7542 18.8995 17.7542 18.8472V14.0969C17.7577 13.1455 17.0673 12.3684 16.2215 12.3684Z" fill="#FFFAFA"/>
</g>
<defs>
<clipPath id="clip0_89_586">
<rect width="19" height="19" fill="white"/>
</clipPath>
</defs>
</svg>
