<svg width="8" height="8" viewBox="0 0 8 8" fill="none" xmlns="http://www.w3.org/2000/svg">
<path d="M4.20001 5.40002L3.60001 3.90002V3.79999L4.20001 2.29999L4.3 2.20001C4.3 2.20001 4.40001 2.19999 4.40001 2.29999L5.00001 3.79999V3.90002L4.40001 5.40002L4.3 5.5C4.3 5.5 4.20001 5.50002 4.20001 5.40002ZM4.3 2.59998L3.8 3.79999L4.3 5L4.8 3.79999L4.3 2.59998Z" fill="#7CB041"/>
<path d="M4.3 3.79999C4.3 3.89999 4.4 3.90002 4.4 3.90002H5.5C5.6 3.90002 5.6 3.79999 5.6 3.79999L5.5 3.70001H4.4C4.4 3.70001 4.3 3.69999 4.3 3.79999Z" fill="#7CB041"/>
<path d="M0.600006 3.59998C0.600006 5.59998 2.3 7.29999 4.3 7.29999C6.3 7.29999 7.90001 5.69999 8.00001 3.79999V3.70001C8.00001 1.70001 6.40001 0.1 4.40001 0H4.3C2.20001 0 0.600006 1.59998 0.600006 3.59998ZM0.800005 3.90002H1.8C1.9 3.90002 1.90001 3.79999 1.90001 3.79999C1.90001 3.69999 1.9 3.70001 1.8 3.70001H0.800005C0.800005 1.80001 2.30001 0.299988 4.20001 0.299988V1.29999C4.20001 1.39999 4.3 1.40002 4.3 1.40002C4.4 1.40002 4.40001 1.29999 4.40001 1.29999V0.299988C6.20001 0.399988 7.60001 1.90001 7.60001 3.70001H6.8C6.70001 3.70001 6.70001 3.79999 6.70001 3.79999C6.70001 3.89999 6.8 3.90002 6.8 3.90002H7.60001C7.50001 5.60002 6.10001 6.9 4.40001 7V6.20001C4.40001 6.10001 4.3 6.09998 4.3 6.09998C4.20001 6.09998 4.20001 6.20001 4.20001 6.20001V7C2.40001 7.1 1 5.70002 0.800005 3.90002Z" fill="#7CB041"/>
</svg>
