<svg width="19" height="19" viewBox="0 0 19 19" fill="none" xmlns="http://www.w3.org/2000/svg">
<path d="M11.0891 12.853H10.0586V15.0424H11.0891V12.853Z" fill="white"/>
<path d="M8.87208 9.5H7.82373V11.7062H8.87208V9.5Z" fill="white"/>
<path fill-rule="evenodd" clip-rule="evenodd" d="M10.3896 5.90007C11.3486 4.78242 12.0326 2.25989 12.0326 1.34678C12.0326 -0.582282 10.8825 1.83854 9.46422 1.83854C8.04369 1.83854 6.89587 -0.60687 6.89587 1.34678C6.89587 2.27554 7.59887 4.86513 8.58575 5.95484C5.67093 6.7819 3.37305 10.9775 3.37305 14.6658C3.37305 17.9271 6.11687 18.4255 9.49999 18.4255C12.8831 18.4255 15.6258 17.8824 15.6258 14.6658C15.6258 11.3061 13.386 6.6176 10.3896 5.90007ZM12.3288 15.1408H11.2111V16.2405H10.0935V17.3928H8.90652V16.2405H7.78887V15.1408L7.8034 15.1229H6.67122V13.936H7.8414V15.076L7.85928 15.0536H8.90764V12.8876H7.82352V11.7878H6.65334V9.48325H7.82352V8.34772H8.90652V7.19542H10.0935V8.34772H11.2111V9.46537H12.3109V10.6523H11.1407V9.51119L11.1228 9.51789H10.0923V11.7007H11.2279V12.8362H12.3276V15.1408H12.3288Z" fill="white"/>
</svg>
