<svg width="23" height="23" viewBox="0 0 23 23" fill="none" xmlns="http://www.w3.org/2000/svg">
<path d="M16.7442 8.07101C16.5928 7.84456 16.3505 7.74752 16.1082 7.81222C13.2312 8.45919 12.4741 7.71517 10.8084 6.06538C9.14278 4.44794 6.99257 4.38324 5.87205 4.51264C5.87205 4.12445 5.59949 3.83331 5.23607 3.83331C4.87266 3.83331 4.6001 4.12445 4.6001 4.51264V18.4873C4.6001 18.8755 4.87266 19.1666 5.23607 19.1666C5.59949 19.1666 5.87205 18.8755 5.87205 18.4873V12.7292C6.38688 12.2117 8.08282 10.6913 10.4753 11.8882C13.5037 13.4409 15.9265 10.5619 16.8048 8.81503C16.8956 8.55624 16.8956 8.29745 16.7442 8.07101ZM14.3214 9.97959C13.2312 10.9824 12.1712 11.2088 11.0507 10.6266C8.96107 9.55905 7.11371 10.1413 5.90233 10.95V5.87129C6.78058 5.77424 8.62794 5.74189 9.96046 7.06819C11.505 8.58859 12.5649 9.55905 14.8666 9.39731C14.6848 9.5914 14.5334 9.78549 14.3214 9.97959Z" fill="black"/>
</svg>
