<svg width="21" height="22" viewBox="0 0 21 22" fill="none" xmlns="http://www.w3.org/2000/svg">
<path fill-rule="evenodd" clip-rule="evenodd" d="M4.39535 10.7289C4.39535 10.032 4.51109 9.36392 4.71767 8.73725L1.10177 5.97601C0.397047 7.40686 0 9.01913 0 10.7289C0 12.4373 0.396558 14.0486 1.1003 15.4784L4.71426 12.7118C4.50963 12.0881 4.39535 11.4224 4.39535 10.7289Z" fill="#FBBC05"/>
<path fill-rule="evenodd" clip-rule="evenodd" d="M10.7442 4.38911C12.2582 4.38911 13.6256 4.92556 14.7 5.80338L17.8256 2.68224C15.921 1.02413 13.4791 0 10.7442 0C6.49832 0 2.8492 2.42816 1.10181 5.97602L4.71771 8.73726C5.55088 6.20816 7.92583 4.38911 10.7442 4.38911Z" fill="#EB4335"/>
<path fill-rule="evenodd" clip-rule="evenodd" d="M10.7442 17.0688C7.92583 17.0688 5.55088 15.2497 4.71771 12.7206L1.10181 15.4814C2.8492 19.0298 6.49832 21.4579 10.7442 21.4579C13.3648 21.4579 15.8668 20.5274 17.7446 18.784L14.3123 16.1305C13.3438 16.7406 12.1244 17.0688 10.7442 17.0688Z" fill="#34A853"/>
<path fill-rule="evenodd" clip-rule="evenodd" d="M21 10.7289C21 10.0949 20.9023 9.41218 20.7558 8.7782H10.7441V12.9235H16.5069C16.2188 14.3368 15.4345 15.4233 14.3122 16.1305L17.7445 18.7839C19.717 16.9532 21 14.2261 21 10.7289Z" fill="#4285F4"/>
</svg>
