<svg width="31" height="30" viewBox="0 0 31 30" fill="none" xmlns="http://www.w3.org/2000/svg">
<path d="M30.5 15.7C30.4 15.7 30.3 15.7 30.2 15.6L15.9 1.29998L1.60001 15.6C1.40001 15.8 1.20001 15.8 1.00001 15.6C0.800006 15.4 0.800006 15.2 1.00001 15L15.6 0.400012C15.7 0.300012 16 0.300012 16.2 0.400012L30.8 15C31 15.2 31 15.4 30.8 15.6C30.7 15.7 30.6 15.7 30.5 15.7Z" fill="#7CB041"/>
<path d="M26.5 29.3H19.5C19.3 29.3 19.1 29.1 19.1 28.9V18.8H12.6V28.9C12.6 29.1 12.4 29.3 12.2 29.3H5.20001C5.00001 29.3 4.79999 29.1 4.79999 28.9V11.8C4.79999 11.6 5.00001 11.4 5.20001 11.4C5.40001 11.4 5.60001 11.6 5.60001 11.8V28.5H11.8V18.4C11.8 18.2 12 18 12.2 18H19.4C19.6 18 19.8 18.2 19.8 18.4V28.5H26V11.8C26 11.6 26.2 11.4 26.4 11.4C26.6 11.4 26.8 11.6 26.8 11.8V28.9C26.9 29.1 26.8 29.3 26.5 29.3Z" fill="#7CB041"/>
</svg>
