<svg width="19" height="19" viewBox="0 0 19 19" fill="none" xmlns="http://www.w3.org/2000/svg">
<path d="M15.383 1.35712H15.2628C14.6985 1.35712 14.176 1.67459 13.8649 2.20599C13.7506 2.39915 13.4513 2.42364 13.309 2.25108C12.8354 1.67459 12.2066 1.35712 11.5344 1.35712C10.8668 1.35712 10.2382 1.67459 9.76408 2.25108C9.63457 2.40843 9.36979 2.40954 9.23954 2.25071C8.76547 1.67459 8.13684 1.35712 7.46924 1.35712C6.80164 1.35712 6.17301 1.67459 5.69894 2.25108C5.55681 2.42512 5.25752 2.40119 5.14322 2.20599C4.8315 1.67459 4.309 1.35712 3.74494 1.35712H3.61079C2.74076 1.35712 2.03271 2.06516 2.03271 2.93519V16.0647C2.03271 16.9347 2.74076 17.6427 3.61079 17.6427H3.74494C4.30882 17.6427 4.83132 17.3253 5.14359 16.7931C5.25622 16.5996 5.55606 16.5744 5.69894 16.749C6.17301 17.3251 6.80164 17.6426 7.46924 17.6426C8.13684 17.6426 8.76547 17.3251 9.23954 16.7486C9.36979 16.5905 9.63457 16.5909 9.76408 16.749C10.2382 17.3251 10.8668 17.6426 11.539 17.6426C12.2066 17.6426 12.8356 17.3251 13.3088 16.7493C13.4522 16.576 13.752 16.6009 13.8647 16.7931C14.1762 17.3253 14.6987 17.6427 15.2629 17.6427H15.3832C16.2532 17.6427 16.9613 16.9347 16.9613 16.0647V2.93538C16.9613 2.06516 16.253 1.35712 15.383 1.35712ZM15.604 16.0647C15.604 16.1866 15.5049 16.2857 15.383 16.2857H15.2628C15.1488 16.2857 15.0603 16.1495 15.0358 16.1073C14.7323 15.5895 14.171 15.2677 13.5713 15.2677C13.0624 15.2677 12.585 15.4934 12.2606 15.8873C12.1383 16.0361 11.8819 16.2855 11.5344 16.2855C11.1915 16.2855 10.9347 16.0357 10.8124 15.8873C10.166 15.0996 8.83839 15.0995 8.1912 15.8869C8.06893 16.0357 7.81213 16.2855 7.46924 16.2855C7.12635 16.2855 6.86955 16.0357 6.74728 15.8873C6.42387 15.4934 5.94608 15.2677 5.43694 15.2677C4.83651 15.2677 4.27523 15.5899 3.97242 16.1073C3.94793 16.1491 3.85905 16.2857 3.74513 16.2857H3.61098C3.48907 16.2857 3.38999 16.1866 3.38999 16.0647V2.93538C3.38999 2.81347 3.48907 2.71439 3.61098 2.71439H3.74513C3.85905 2.71439 3.94793 2.85095 3.97205 2.89196C4.27523 3.41019 4.83651 3.7323 5.43694 3.7323C5.94627 3.7323 6.42405 3.50668 6.74728 3.11295C6.86955 2.96414 7.12635 2.71439 7.46924 2.71439C7.81213 2.71439 8.06893 2.96414 8.1912 3.11258C8.83839 3.90078 10.166 3.89985 10.8124 3.11295C10.9347 2.96414 11.1915 2.71439 11.539 2.71439C11.8819 2.71439 12.1383 2.96395 12.261 3.11332C12.585 3.50668 13.0625 3.7323 13.5713 3.7323C14.171 3.7323 14.7323 3.41056 15.0362 2.89196C15.0603 2.85058 15.1488 2.71439 15.2628 2.71439H15.383C15.5049 2.71439 15.604 2.81347 15.604 2.93538V16.0647Z" fill="white"/>
<path d="M4.74679 6.78101H14.2468V8.1381H4.74679V6.78101ZM4.74512 10.1717H11.5308V11.5332H4.74512V10.1717Z" fill="white"/>
</svg>
