<svg width="19" height="19" viewBox="0 0 19 19" fill="none" xmlns="http://www.w3.org/2000/svg">
<g clip-path="url(#clip0_89_518)">
<path d="M3.16683 3.95833H10.2918V2.375H1.5835V16.625H11.8752V15.0417H3.16683V3.95833Z" fill="white"/>
<path d="M12.667 13.7358L15.042 16.7046L17.417 13.7358V2.375H12.667V13.7358ZM15.042 14.1704L14.2503 13.1809V7.125H15.8337V13.1809L15.042 14.1704ZM15.8337 3.95833V5.54167H14.2503V3.95833H15.8337Z" fill="white"/>
<path d="M8.31284 5.48468L6.82015 6.97737L6.07361 6.23122L4.95459 7.35103L6.82015 9.2162L9.43226 6.60449L8.31284 5.48468Z" fill="white"/>
<path d="M6.07361 10.1895L4.95459 11.3093L6.82015 13.1745L9.43226 10.5628L8.31284 9.44299L6.82015 10.9357L6.07361 10.1895Z" fill="white"/>
</g>
<defs>
<clipPath id="clip0_89_518">
<rect width="19" height="19" fill="white"/>
</clipPath>
</defs>
</svg>
