<svg width="11" height="10" viewBox="0 0 11 10" fill="none" xmlns="http://www.w3.org/2000/svg">
<path d="M6.9 2.79999C6.9 2.09999 6.3 1.5 5.6 1.5C4.9 1.5 4.3 2.09999 4.3 2.79999C4.3 3.49999 4.9 4.10001 5.6 4.10001C6.3 4.10001 6.9 3.49999 6.9 2.79999ZM4.6 2.79999C4.6 2.19999 5.1 1.79999 5.6 1.79999C6.2 1.79999 6.6 2.29999 6.6 2.79999C6.6 3.39999 6.1 3.79999 5.6 3.79999C5 3.79999 4.6 3.29999 4.6 2.79999Z" fill="#7CB041"/>
<path d="M10.4 8.89999L7.8 5.29999L7.70001 5.20001H7.00001L7.70001 3.79999C8.00001 3.09999 8.00001 2.2 7.60001 1.5C7.20001 0.8 6.50001 0.399994 5.70001 0.399994C5.60001 0.399994 5.50001 0.399994 5.40001 0.399994C4.60001 0.399994 4.00001 0.8 3.50001 1.5C3.10001 2.2 3.00001 2.99999 3.40001 3.79999L4.10001 5.20001H3.40001C3.40001 5.20001 3.3 5.19999 3.3 5.29999L0.600006 8.89999V9L0.700006 9.10001H10.3C10.3 9.10001 10.4 9.1 10.4 9V8.89999ZM3.8 1.70001C4.20001 1.10001 4.80001 0.700012 5.40001 0.700012H5.50001H5.60001C6.30001 0.700012 6.90001 1.10001 7.20001 1.70001C7.60001 2.30001 7.60001 3.10001 7.3 3.70001L5.40001 7.70001L3.50001 3.70001C3.40001 3.00001 3.50001 2.30001 3.8 1.70001ZM1.00001 8.79999L3.50001 5.39999H4.3L5.50001 8L5.60001 8.10001C5.70001 8.10001 5.70001 8.1 5.70001 8L6.90001 5.39999H7.60001L10 8.79999H1.00001Z" fill="#7CB041"/>
</svg>
