<svg width="21" height="21" viewBox="0 0 21 21" fill="none" xmlns="http://www.w3.org/2000/svg">
<path d="M2.00001 5.8C1.60001 5.4 0.900006 5.3 0.500006 5.7C0.300006 5.9 0.100006 6.2 0.100006 6.5C0.100006 6.8 0.200005 7.1 0.400005 7.3L2.50001 9.4L5.10001 12.5C4.70001 12.9 4.50001 13.5 4.50001 14.1C4.50001 14.7 4.70001 15.3 5.20001 15.7C5.70001 16.2 6.2 16.4 6.8 16.4C7.4 16.4 8.00001 16.2 8.40001 15.8L11.4 18.3L13.8 20.7C14 20.9 14.3 21 14.6 21H14.7C15 21 15.3 20.8 15.5 20.5C15.8 20.1 15.7 19.5 15.3 19.1L14.7 18.5C13.9 17.7 13.9 16.3 14.7 15.5L18.7 11.5C21.2 9 21.2 5 18.9 2.5L19.6 1.8C19.7 1.7 19.7 1.5 19.6 1.4C19.5 1.3 19.3 1.3 19.2 1.4L18.5 2.1C15.9 -0.299999 11.9 -0.2 9.50001 2.3L5.50001 6.3C4.70001 7.1 3.30001 7.1 2.50001 6.3L2.00001 5.8ZM5.50001 15.3C5.20001 15 5.00001 14.5 5.00001 14.1C5.00001 13.7 5.20001 13.3 5.40001 12.9L5.8 13.3C6.3 13.9 6.80001 14.4 7.40001 14.9L7.8 15.3C7.2 16 6.20001 16 5.50001 15.3ZM5.8 6.6L9.8 2.6C12.1 0.300001 15.7 0.3 18 2.4L16.6 3.8C16.5 3.9 16.5 4.1 16.6 4.2C16.7 4.3 16.7 4.3 16.8 4.3C16.9 4.3 16.9 4.3 17 4.2L18.4 2.8C20.5 5.1 20.5 8.8 18.2 11L14.2 15C13.1 16.1 13.1 17.8 14.2 18.8L14.8 19.4C15 19.6 15 19.9 14.9 20.1C14.8 20.2 14.7 20.3 14.5 20.3C14.3 20.3 14.2 20.3 14.1 20.1L11.7 17.7L7.8 14.4C7.2 13.9 6.70001 13.4 6.20001 12.8L3.00001 9L0.800005 6.8C0.700005 6.7 0.600006 6.6 0.600006 6.4C0.600006 6.3 0.700005 6.1 0.800005 6C0.900005 5.9 1.00001 5.9 1.10001 5.9C1.30001 5.9 1.40001 6 1.50001 6.1L1.90001 6.5C3.10001 7.6 4.8 7.6 5.8 6.6Z" fill="white"/>
</svg>
