<svg width="19" height="19" viewBox="0 0 19 19" fill="none" xmlns="http://www.w3.org/2000/svg">
<g clip-path="url(#clip0_89_673)">
<path d="M6.92401 12.3919L2.87112 13.2904L1.27881 18.9992H8.25541L8.98591 12.8901L7.75483 11.5579L6.92401 12.3919Z" fill="white"/>
<path d="M16.1274 13.2903L12.0712 12.3918L11.2388 11.5586L10.0117 12.8908L10.7414 18.9999H17.7213L16.1274 13.2903Z" fill="white"/>
<path d="M9.49976 6.4279C12.2433 6.4279 14.4666 6.15232 14.4666 5.81151C14.4666 5.73814 14.3443 5.66637 14.1454 5.60117C13.9954 3.08593 14.0109 0 9.50138 0C4.9919 0 5.00578 3.08593 4.85738 5.60037C4.65763 5.66641 4.53369 5.73814 4.53369 5.81155C4.53369 6.15232 6.75868 6.4279 9.49976 6.4279Z" fill="white"/>
<path d="M13.6429 6.80135C12.7371 6.94891 11.3226 7.04431 9.71477 7.04431C7.8208 7.04431 6.191 6.91225 5.35693 6.71899C5.65126 9.33288 7.38542 11.3508 9.50685 11.3508C11.603 11.3492 13.316 9.37449 13.6429 6.80135Z" fill="white"/>
</g>
<defs>
<clipPath id="clip0_89_673">
<rect width="19" height="19" fill="white"/>
</clipPath>
</defs>
</svg>
