<svg width="19" height="19" viewBox="0 0 19 19" fill="none" xmlns="http://www.w3.org/2000/svg">
<g clip-path="url(#clip0_89_509)">
<path d="M5.9375 13.0625C6.56739 13.0625 7.17148 12.8123 7.61688 12.3669C8.06228 11.9215 8.3125 11.3174 8.3125 10.6875C8.3125 10.0576 8.06228 9.45352 7.61688 9.00812C7.17148 8.56272 6.56739 8.3125 5.9375 8.3125C5.30761 8.3125 4.70352 8.56272 4.25812 9.00812C3.81272 9.45352 3.5625 10.0576 3.5625 10.6875C3.5625 11.3174 3.81272 11.9215 4.25812 12.3669C4.70352 12.8123 5.30761 13.0625 5.9375 13.0625ZM5.9375 9.5C6.25244 9.5 6.55449 9.62511 6.77719 9.84781C6.99989 10.0705 7.125 10.3726 7.125 10.6875C7.125 11.0024 6.99989 11.3045 6.77719 11.5272C6.55449 11.7499 6.25244 11.875 5.9375 11.875C5.62256 11.875 5.32051 11.7499 5.09781 11.5272C4.87511 11.3045 4.75 11.0024 4.75 10.6875C4.75 10.3726 4.87511 10.0705 5.09781 9.84781C5.32051 9.62511 5.62256 9.5 5.9375 9.5ZM8.90625 14.25H2.96875C2.57889 14.25 2.19284 14.3268 1.83266 14.476C1.47247 14.6252 1.1452 14.8439 0.869527 15.1195C0.593853 15.3952 0.375177 15.7225 0.225984 16.0827C0.0767899 16.4428 0 16.8289 0 17.2188C0 17.6912 0.187668 18.1442 0.521717 18.4783C0.855766 18.8123 1.30883 19 1.78125 19H10.0938C10.5662 19 11.0192 18.8123 11.3533 18.4783C11.6873 18.1442 11.875 17.6912 11.875 17.2188C11.875 16.4314 11.5622 15.6763 11.0055 15.1195C10.4487 14.5628 9.69361 14.25 8.90625 14.25ZM10.0938 17.8125H1.78125C1.62378 17.8125 1.47275 17.7499 1.3614 17.6386C1.25006 17.5272 1.1875 17.3762 1.1875 17.2188C1.1875 16.7463 1.37517 16.2933 1.70922 15.9592C2.04327 15.6252 2.49633 15.4375 2.96875 15.4375H8.90625C9.37867 15.4375 9.83174 15.6252 10.1658 15.9592C10.4998 16.2933 10.6875 16.7463 10.6875 17.2188C10.6875 17.3762 10.6249 17.5272 10.5136 17.6386C10.4022 17.7499 10.2512 17.8125 10.0938 17.8125ZM19 2.96875V8.90625C19 9.69361 18.6872 10.4487 18.1305 11.0055C17.5737 11.5622 16.8186 11.875 16.0312 11.875H12.7146L10.5141 14.0766C10.4589 14.1317 10.3933 14.1754 10.3212 14.2052C10.2491 14.2349 10.1718 14.2501 10.0938 14.25C10.0159 14.2503 9.93875 14.235 9.86694 14.2049C9.75836 14.16 9.66553 14.0839 9.60021 13.9862C9.5349 13.8886 9.50002 13.7737 9.5 13.6562V11.2812C9.5 11.1238 9.56256 10.9728 9.6739 10.8614C9.78525 10.7501 9.93628 10.6875 10.0938 10.6875C10.2512 10.6875 10.4022 10.7501 10.5136 10.8614C10.6249 10.9728 10.6875 11.1238 10.6875 11.2812V12.2229L12.0484 10.8609C12.1036 10.8058 12.1692 10.7621 12.2413 10.7323C12.3134 10.7026 12.3907 10.6874 12.4688 10.6875H16.0312C16.5037 10.6875 16.9567 10.4998 17.2908 10.1658C17.6248 9.83174 17.8125 9.37867 17.8125 8.90625V2.96875C17.8125 2.49633 17.6248 2.04327 17.2908 1.70922C16.9567 1.37517 16.5037 1.1875 16.0312 1.1875H7.71875C7.24633 1.1875 6.79327 1.37517 6.45922 1.70922C6.12517 2.04327 5.9375 2.49633 5.9375 2.96875V6.53125C5.9375 6.68872 5.87494 6.83974 5.7636 6.95109C5.65225 7.06244 5.50122 7.125 5.34375 7.125C5.18628 7.125 5.03525 7.06244 4.9239 6.95109C4.81256 6.83974 4.75 6.68872 4.75 6.53125V2.96875C4.75 2.18139 5.06278 1.42628 5.61953 0.869527C6.17628 0.312778 6.93139 0 7.71875 0H16.0312C16.8186 0 17.5737 0.312778 18.1305 0.869527C18.6872 1.42628 19 2.18139 19 2.96875ZM10.8609 8.13913L8.48587 5.76413C8.43058 5.70897 8.38671 5.64345 8.35678 5.57132C8.32685 5.49918 8.31144 5.42185 8.31144 5.34375C8.31144 5.26565 8.32685 5.18832 8.35678 5.11618C8.38671 5.04405 8.43058 4.97853 8.48587 4.92337C8.54103 4.86808 8.60655 4.82421 8.67869 4.79428C8.75082 4.76435 8.82815 4.74894 8.90625 4.74894C8.98435 4.74894 9.06168 4.76435 9.13381 4.79428C9.20595 4.82421 9.27147 4.86808 9.32663 4.92337L11.2812 6.87919L14.4234 3.73587C14.4785 3.68058 14.5441 3.63671 14.6162 3.60678C14.6883 3.57685 14.7657 3.56144 14.8438 3.56144C14.9218 3.56144 14.9992 3.57685 15.0713 3.60678C15.1434 3.63671 15.209 3.68058 15.2641 3.73587C15.3194 3.79103 15.3633 3.85655 15.3932 3.92868C15.4232 4.00082 15.4386 4.07815 15.4386 4.15625C15.4386 4.23435 15.4232 4.31168 15.3932 4.38382C15.3633 4.45595 15.3194 4.52147 15.2641 4.57663L11.7016 8.13913C11.6464 8.19423 11.5808 8.2379 11.5087 8.26765C11.4366 8.2974 11.3593 8.31264 11.2812 8.3125C11.2032 8.31264 11.1259 8.2974 11.0538 8.26765C10.9817 8.2379 10.9161 8.19423 10.8609 8.13913Z" fill="white"/>
</g>
<defs>
<clipPath id="clip0_89_509">
<rect width="19" height="19" fill="white"/>
</clipPath>
</defs>
</svg>
